<svg viewBox="0 -46 455.92741935483855 100" xmlns="http://www.w3.org/2000/svg" xmlns:xlink="http://www.w3.org/1999/xlink" version="1.1" class="jsx-2263963463 artboard-inner" style="width: 339px; height: 74.3539px; max-height: 100%;"><g transform="translate(-2.82258064516129 29.604838709677423) scale(1.400089605734767)" fill="#fff"><g id="line1"><path d="M10.836-1.836C13.788-0.132 17.352 0.720 21.528 0.720C23.928 0.720 26.148 0.468 28.188-0.036C30.228-0.540 32.016-1.200 33.552-2.016L33.120-9.576C29.808-7.608 26.208-6.624 22.320-6.624C19.488-6.624 17.064-7.404 15.048-8.964C13.032-10.524 11.784-12.888 11.304-16.056L34.560-16.056C34.944-17.880 35.136-19.512 35.136-20.952C35.136-23.880 34.548-26.520 33.372-28.872C32.196-31.224 30.444-33.096 28.116-34.488C25.788-35.880 22.944-36.576 19.584-36.576C15.936-36.576 12.792-35.748 10.152-34.092C7.512-32.436 5.496-30.216 4.104-27.432C2.712-24.648 2.016-21.576 2.016-18.216C2.016-14.712 2.748-11.532 4.212-8.676C5.676-5.820 7.884-3.540 10.836-1.836ZM26.064-22.104L11.520-22.104C12.000-24.264 12.912-25.992 14.256-27.288C15.600-28.584 17.376-29.232 19.584-29.232C21.792-29.232 23.424-28.512 24.480-27.072C25.536-25.632 26.064-23.976 26.064-22.104Z"></path><path d="M36.518-36.000L50.342 0L57.974 0L71.798-36.000L63.014-36.000L54.158-11.088L45.302-36.000Z"></path><path d="M82.073-1.836C85.025-0.132 88.589 0.720 92.765 0.720C95.165 0.720 97.385 0.468 99.425-0.036C101.465-0.540 103.253-1.200 104.789-2.016L104.357-9.576C101.045-7.608 97.445-6.624 93.557-6.624C90.725-6.624 88.301-7.404 86.285-8.964C84.269-10.524 83.021-12.888 82.541-16.056L105.797-16.056C106.181-17.880 106.373-19.512 106.373-20.952C106.373-23.880 105.785-26.520 104.609-28.872C103.433-31.224 101.681-33.096 99.353-34.488C97.025-35.880 94.181-36.576 90.821-36.576C87.173-36.576 84.029-35.748 81.389-34.092C78.749-32.436 76.733-30.216 75.341-27.432C73.949-24.648 73.253-21.576 73.253-18.216C73.253-14.712 73.985-11.532 75.449-8.676C76.913-5.820 79.121-3.540 82.073-1.836ZM97.301-22.104L82.757-22.104C83.237-24.264 84.149-25.992 85.493-27.288C86.837-28.584 88.613-29.232 90.821-29.232C93.029-29.232 94.661-28.512 95.717-27.072C96.773-25.632 97.301-23.976 97.301-22.104Z"></path><path d="M111.715-36.000L111.715 0L120.643 0L120.643-24.552C121.171-25.560 122.059-26.412 123.307-27.108C124.555-27.804 125.923-28.152 127.411-28.152C128.563-28.152 129.595-28.032 130.507-27.792L131.155-36.576C130.675-36.672 130.147-36.720 129.571-36.720C127.747-36.720 126.007-36.264 124.351-35.352C122.695-34.440 121.339-33.384 120.283-32.184L120.067-36.000Z"></path><path d="M145.570-2.376L137.578 17.424L146.506 17.424L169.042-36.000L159.106-36.000L149.746-12.816L140.530-36.000L130.594-36.000Z"></path><path d="M177.120-2.052C178.752-0.204 181.152 0.720 184.320 0.720L190.728 0.720L191.520-6.624L189.072-6.624C187.248-6.624 185.988-6.732 185.292-6.948C184.596-7.164 184.140-7.644 183.924-8.388C183.708-9.132 183.600-10.464 183.600-12.384L183.600-28.656L191.520-28.656L191.520-36.000L183.600-36.000L183.600-44.856L174.672-43.920L174.672-36.000L170.352-36.000L169.560-28.656L174.672-28.656L174.672-8.712C174.672-6.120 175.488-3.900 177.120-2.052Z"></path><path d="M196.574-36.000L196.574 0L205.502 0L205.502-24.552C206.030-25.560 206.918-26.412 208.166-27.108C209.414-27.804 210.782-28.152 212.270-28.152C213.422-28.152 214.454-28.032 215.366-27.792L216.014-36.576C215.534-36.672 215.006-36.720 214.430-36.720C212.606-36.720 210.866-36.264 209.210-35.352C207.554-34.440 206.198-33.384 205.142-32.184L204.926-36.000Z"></path><path d="M226.217-1.836C229.169-0.132 232.733 0.720 236.909 0.720C239.309 0.720 241.529 0.468 243.569-0.036C245.609-0.540 247.397-1.200 248.933-2.016L248.501-9.576C245.189-7.608 241.589-6.624 237.701-6.624C234.869-6.624 232.445-7.404 230.429-8.964C228.413-10.524 227.165-12.888 226.685-16.056L249.941-16.056C250.325-17.880 250.517-19.512 250.517-20.952C250.517-23.880 249.929-26.520 248.753-28.872C247.577-31.224 245.825-33.096 243.497-34.488C241.169-35.880 238.325-36.576 234.965-36.576C231.317-36.576 228.173-35.748 225.533-34.092C222.893-32.436 220.877-30.216 219.485-27.432C218.093-24.648 217.397-21.576 217.397-18.216C217.397-14.712 218.129-11.532 219.593-8.676C221.057-5.820 223.265-3.540 226.217-1.836ZM241.445-22.104L226.901-22.104C227.381-24.264 228.293-25.992 229.637-27.288C230.981-28.584 232.757-29.232 234.965-29.232C237.173-29.232 238.805-28.512 239.861-27.072C240.917-25.632 241.445-23.976 241.445-22.104Z"></path><path d="M284.155-32.112C281.851-35.088 278.467-36.576 274.003-36.576C270.595-36.576 267.379-35.544 264.355-33.480L264.211-36.000L255.859-36.000L255.859 0L264.787 0L264.787-26.136C266.563-28.200 268.819-29.232 271.555-29.232C274.051-29.232 275.863-28.428 276.991-26.820C278.119-25.212 278.683-22.728 278.683-19.368L278.683 0L287.611 0L287.611-20.088C287.611-25.128 286.459-29.136 284.155-32.112Z"></path><path d="M327.658-54.000L318.730-54.000L318.730-33.696C315.994-35.616 312.874-36.576 309.370-36.576C305.866-36.576 302.854-35.736 300.334-34.056C297.814-32.376 295.906-30.120 294.610-27.288C293.314-24.456 292.666-21.336 292.666-17.928C292.666-14.520 293.314-11.400 294.610-8.568C295.906-5.736 297.814-3.480 300.334-1.800C302.854-0.120 305.866 0.720 309.370 0.720C311.434 0.720 313.222 0.468 314.734-0.036C316.246-0.540 317.698-1.296 319.090-2.304L319.234 0L327.658 0ZM317.038-9.648C315.622-7.632 313.498-6.624 310.666-6.624C307.882-6.624 305.710-7.656 304.150-9.720C302.590-11.784 301.810-14.520 301.810-17.928C301.810-21.336 302.590-24.072 304.150-26.136C305.710-28.200 307.882-29.232 310.666-29.232C313.498-29.232 315.622-28.224 317.038-26.208C318.454-24.192 319.162-21.432 319.162-17.928C319.162-14.424 318.454-11.664 317.038-9.648Z"></path></g></g></svg>